<?xml version="1.0"?>
<!-- Generated by SVGo and Plotinum VG -->
<svg width="280pt" height="600pt" viewBox="0 0 280 600"
	xmlns="http://www.w3.org/2000/svg"
	xmlns:xlink="http://www.w3.org/1999/xlink">
<g transform="scale(1, -1) translate(0, -600)">
<path d="M0,0L280,0L280,600L0,600Z" style="fill:#FFFFFF" />
<text x="106.67" y="-588.45" transform="scale(1, -1)"
	style="font-family:Times;font-weight:normal;font-style:normal;font-size:12px">Queen by GA</text>
<text x="154.59" y="-3.8613" transform="scale(1, -1)"
	style="font-family:Times;font-weight:normal;font-style:normal;font-size:12px">Gen</text>
<text x="52.166" y="-15.602" transform="scale(1, -1)"
	style="font-family:Times;font-weight:normal;font-style:normal;font-size:10px">0</text>
<text x="76.592" y="-15.602" transform="scale(1, -1)"
	style="font-family:Times;font-weight:normal;font-style:normal;font-size:10px">1</text>
<text x="101.02" y="-15.602" transform="scale(1, -1)"
	style="font-family:Times;font-weight:normal;font-style:normal;font-size:10px">2</text>
<text x="125.44" y="-15.602" transform="scale(1, -1)"
	style="font-family:Times;font-weight:normal;font-style:normal;font-size:10px">3</text>
<text x="149.87" y="-15.602" transform="scale(1, -1)"
	style="font-family:Times;font-weight:normal;font-style:normal;font-size:10px">4</text>
<text x="174.3" y="-15.602" transform="scale(1, -1)"
	style="font-family:Times;font-weight:normal;font-style:normal;font-size:10px">5</text>
<text x="198.72" y="-15.602" transform="scale(1, -1)"
	style="font-family:Times;font-weight:normal;font-style:normal;font-size:10px">6</text>
<text x="223.15" y="-15.602" transform="scale(1, -1)"
	style="font-family:Times;font-weight:normal;font-style:normal;font-size:10px">7</text>
<text x="247.57" y="-15.602" transform="scale(1, -1)"
	style="font-family:Times;font-weight:normal;font-style:normal;font-size:10px">8</text>
<text x="272" y="-15.602" transform="scale(1, -1)"
	style="font-family:Times;font-weight:normal;font-style:normal;font-size:10px">9</text>
<path d="M54.666,25.23L54.666,33.23" style="fill:none;stroke:#000000;stroke-width:0.5" />
<path d="M79.092,25.23L79.092,33.23" style="fill:none;stroke:#000000;stroke-width:0.5" />
<path d="M103.52,25.23L103.52,33.23" style="fill:none;stroke:#000000;stroke-width:0.5" />
<path d="M127.94,25.23L127.94,33.23" style="fill:none;stroke:#000000;stroke-width:0.5" />
<path d="M152.37,25.23L152.37,33.23" style="fill:none;stroke:#000000;stroke-width:0.5" />
<path d="M176.8,25.23L176.8,33.23" style="fill:none;stroke:#000000;stroke-width:0.5" />
<path d="M201.22,25.23L201.22,33.23" style="fill:none;stroke:#000000;stroke-width:0.5" />
<path d="M225.65,25.23L225.65,33.23" style="fill:none;stroke:#000000;stroke-width:0.5" />
<path d="M250.07,25.23L250.07,33.23" style="fill:none;stroke:#000000;stroke-width:0.5" />
<path d="M274.5,25.23L274.5,33.23" style="fill:none;stroke:#000000;stroke-width:0.5" />
<path d="M54.666,33.23L274.5,33.23" style="fill:none;stroke:#000000;stroke-width:0.5" />
<g transform="rotate(90)">
<text x="296.67" y="11.555" transform="scale(1, -1)"
	style="font-family:Times;font-weight:normal;font-style:normal;font-size:12px">Score</text>
</g>
<text x="15.416" y="-83.664" transform="scale(1, -1)"
	style="font-family:Times;font-weight:normal;font-style:normal;font-size:10px">0.88</text>
<text x="15.416" y="-247.43" transform="scale(1, -1)"
	style="font-family:Times;font-weight:normal;font-style:normal;font-size:10px">0.92</text>
<text x="15.416" y="-411.19" transform="scale(1, -1)"
	style="font-family:Times;font-weight:normal;font-style:normal;font-size:10px">0.96</text>
<text x="27.916" y="-574.96" transform="scale(1, -1)"
	style="font-family:Times;font-weight:normal;font-style:normal;font-size:10px">1</text>
<path d="M35.416,88.386L43.416,88.386" style="fill:none;stroke:#000000;stroke-width:0.5" />
<path d="M35.416,252.15L43.416,252.15" style="fill:none;stroke:#000000;stroke-width:0.5" />
<path d="M35.416,415.91L43.416,415.91" style="fill:none;stroke:#000000;stroke-width:0.5" />
<path d="M35.416,579.68L43.416,579.68" style="fill:none;stroke:#000000;stroke-width:0.5" />
<path d="M39.416,47.445L43.416,47.445" style="fill:none;stroke:#000000;stroke-width:0.5" />
<path d="M39.416,129.33L43.416,129.33" style="fill:none;stroke:#000000;stroke-width:0.5" />
<path d="M39.416,170.27L43.416,170.27" style="fill:none;stroke:#000000;stroke-width:0.5" />
<path d="M39.416,211.21L43.416,211.21" style="fill:none;stroke:#000000;stroke-width:0.5" />
<path d="M39.416,293.09L43.416,293.09" style="fill:none;stroke:#000000;stroke-width:0.5" />
<path d="M39.416,334.03L43.416,334.03" style="fill:none;stroke:#000000;stroke-width:0.5" />
<path d="M39.416,374.97L43.416,374.97" style="fill:none;stroke:#000000;stroke-width:0.5" />
<path d="M39.416,456.85L43.416,456.85" style="fill:none;stroke:#000000;stroke-width:0.5" />
<path d="M39.416,497.79L43.416,497.79" style="fill:none;stroke:#000000;stroke-width:0.5" />
<path d="M39.416,538.74L43.416,538.74" style="fill:none;stroke:#000000;stroke-width:0.5" />
<path d="M43.416,40.98L43.416,579.68" style="fill:none;stroke:#000000;stroke-width:0.5" />
<path d="M49.666,256.46L49.666,353.42L59.666,353.42L59.666,256.46L49.166,256.46" style="fill:none;stroke:#000000" />
<path d="M49.666,299.55L59.666,299.55" style="fill:none;stroke:#000000" />
<path d="M54.666,353.42L54.666,450.39" style="fill:none;stroke:#000000;stroke-width:0.5;stroke-dasharray:4,2" />
<path d="M50.916,450.39L58.416,450.39" style="fill:none;stroke:#000000;stroke-width:0.5;stroke-dasharray:4,2" />
<path d="M54.666,256.46L54.666,127.17" style="fill:none;stroke:#000000;stroke-width:0.5;stroke-dasharray:4,2" />
<path d="M50.916,127.17L58.416,127.17" style="fill:none;stroke:#000000;stroke-width:0.5;stroke-dasharray:4,2" />
<path d="M57.166,105.62A2.5,2.5 0 1 1 52.166,105.62A2.5,2.5 0 1 1 57.166,105.62Z" style="fill:none;stroke:#000000;stroke-width:0.5" />
<path d="M74.092,342.65L74.092,428.84L84.092,428.84L84.092,342.65L73.592,342.65" style="fill:none;stroke:#000000" />
<path d="M74.092,385.75L84.092,385.75" style="fill:none;stroke:#000000" />
<path d="M79.092,428.84L79.092,471.94" style="fill:none;stroke:#000000;stroke-width:0.5;stroke-dasharray:4,2" />
<path d="M75.342,471.94L82.842,471.94" style="fill:none;stroke:#000000;stroke-width:0.5;stroke-dasharray:4,2" />
<path d="M79.092,342.65L79.092,234.91" style="fill:none;stroke:#000000;stroke-width:0.5;stroke-dasharray:4,2" />
<path d="M75.342,234.91L82.842,234.91" style="fill:none;stroke:#000000;stroke-width:0.5;stroke-dasharray:4,2" />
<path d="M81.592,213.36A2.5,2.5 0 1 1 76.592,213.36A2.5,2.5 0 1 1 81.592,213.36Z" style="fill:none;stroke:#000000;stroke-width:0.5" />
<path d="M81.592,105.62A2.5,2.5 0 1 1 76.592,105.62A2.5,2.5 0 1 1 81.592,105.62Z" style="fill:none;stroke:#000000;stroke-width:0.5" />
<path d="M98.518,385.75L98.518,450.39L108.52,450.39L108.52,385.75L98.018,385.75" style="fill:none;stroke:#000000" />
<path d="M98.518,407.29L108.52,407.29" style="fill:none;stroke:#000000" />
<path d="M103.52,450.39L103.52,493.49" style="fill:none;stroke:#000000;stroke-width:0.5;stroke-dasharray:4,2" />
<path d="M99.768,493.49L107.27,493.49" style="fill:none;stroke:#000000;stroke-width:0.5;stroke-dasharray:4,2" />
<path d="M103.52,385.75L103.52,299.55" style="fill:none;stroke:#000000;stroke-width:0.5;stroke-dasharray:4,2" />
<path d="M99.768,299.55L107.27,299.55" style="fill:none;stroke:#000000;stroke-width:0.5;stroke-dasharray:4,2" />
<path d="M106.02,256.46A2.5,2.5 0 1 1 101.02,256.46A2.5,2.5 0 1 1 106.02,256.46Z" style="fill:none;stroke:#000000;stroke-width:0.5" />
<path d="M106.02,234.91A2.5,2.5 0 1 1 101.02,234.91A2.5,2.5 0 1 1 106.02,234.91Z" style="fill:none;stroke:#000000;stroke-width:0.5" />
<path d="M122.94,418.07L122.94,471.94L132.94,471.94L132.94,418.07L122.44,418.07" style="fill:none;stroke:#000000" />
<path d="M122.94,450.39L132.94,450.39" style="fill:none;stroke:#000000" />
<path d="M127.94,471.94L127.94,515.03" style="fill:none;stroke:#000000;stroke-width:0.5;stroke-dasharray:4,2" />
<path d="M124.19,515.03L131.69,515.03" style="fill:none;stroke:#000000;stroke-width:0.5;stroke-dasharray:4,2" />
<path d="M127.94,418.07L127.94,342.65" style="fill:none;stroke:#000000;stroke-width:0.5;stroke-dasharray:4,2" />
<path d="M124.19,342.65L131.69,342.65" style="fill:none;stroke:#000000;stroke-width:0.5;stroke-dasharray:4,2" />
<path d="M130.44,321.1A2.5,2.5 0 1 1 125.44,321.1A2.5,2.5 0 1 1 130.44,321.1Z" style="fill:none;stroke:#000000;stroke-width:0.5" />
<path d="M130.44,299.55A2.5,2.5 0 1 1 125.44,299.55A2.5,2.5 0 1 1 130.44,299.55Z" style="fill:none;stroke:#000000;stroke-width:0.5" />
<path d="M130.44,234.91A2.5,2.5 0 1 1 125.44,234.91A2.5,2.5 0 1 1 130.44,234.91Z" style="fill:none;stroke:#000000;stroke-width:0.5" />
<path d="M147.37,428.84L147.37,471.94L157.37,471.94L157.37,428.84L146.87,428.84" style="fill:none;stroke:#000000" />
<path d="M147.37,450.39L157.37,450.39" style="fill:none;stroke:#000000" />
<path d="M152.37,471.94L152.37,536.58" style="fill:none;stroke:#000000;stroke-width:0.5;stroke-dasharray:4,2" />
<path d="M148.62,536.58L156.12,536.58" style="fill:none;stroke:#000000;stroke-width:0.5;stroke-dasharray:4,2" />
<path d="M152.37,428.84L152.37,364.2" style="fill:none;stroke:#000000;stroke-width:0.5;stroke-dasharray:4,2" />
<path d="M148.62,364.2L156.12,364.2" style="fill:none;stroke:#000000;stroke-width:0.5;stroke-dasharray:4,2" />
<path d="M154.87,342.65A2.5,2.5 0 1 1 149.87,342.65A2.5,2.5 0 1 1 154.87,342.65Z" style="fill:none;stroke:#000000;stroke-width:0.5" />
<path d="M154.87,342.65A2.5,2.5 0 1 1 149.87,342.65A2.5,2.5 0 1 1 154.87,342.65Z" style="fill:none;stroke:#000000;stroke-width:0.5" />
<path d="M154.87,278.01A2.5,2.5 0 1 1 149.87,278.01A2.5,2.5 0 1 1 154.87,278.01Z" style="fill:none;stroke:#000000;stroke-width:0.5" />
<path d="M154.87,256.46A2.5,2.5 0 1 1 149.87,256.46A2.5,2.5 0 1 1 154.87,256.46Z" style="fill:none;stroke:#000000;stroke-width:0.5" />
<path d="M154.87,40.98A2.5,2.5 0 1 1 149.87,40.98A2.5,2.5 0 1 1 154.87,40.98Z" style="fill:none;stroke:#000000;stroke-width:0.5" />
<path d="M171.8,450.39L171.8,493.49L181.8,493.49L181.8,450.39L171.3,450.39" style="fill:none;stroke:#000000" />
<path d="M171.8,471.94L181.8,471.94" style="fill:none;stroke:#000000" />
<path d="M176.8,493.49L176.8,536.58" style="fill:none;stroke:#000000;stroke-width:0.5;stroke-dasharray:4,2" />
<path d="M173.05,536.58L180.55,536.58" style="fill:none;stroke:#000000;stroke-width:0.5;stroke-dasharray:4,2" />
<path d="M176.8,450.39L176.8,385.75" style="fill:none;stroke:#000000;stroke-width:0.5;stroke-dasharray:4,2" />
<path d="M173.05,385.75L180.55,385.75" style="fill:none;stroke:#000000;stroke-width:0.5;stroke-dasharray:4,2" />
<path d="M179.3,342.65A2.5,2.5 0 1 1 174.3,342.65A2.5,2.5 0 1 1 179.3,342.65Z" style="fill:none;stroke:#000000;stroke-width:0.5" />
<path d="M179.3,321.1A2.5,2.5 0 1 1 174.3,321.1A2.5,2.5 0 1 1 179.3,321.1Z" style="fill:none;stroke:#000000;stroke-width:0.5" />
<path d="M179.3,278.01A2.5,2.5 0 1 1 174.3,278.01A2.5,2.5 0 1 1 179.3,278.01Z" style="fill:none;stroke:#000000;stroke-width:0.5" />
<path d="M179.3,234.91A2.5,2.5 0 1 1 174.3,234.91A2.5,2.5 0 1 1 179.3,234.91Z" style="fill:none;stroke:#000000;stroke-width:0.5" />
<path d="M179.3,213.36A2.5,2.5 0 1 1 174.3,213.36A2.5,2.5 0 1 1 179.3,213.36Z" style="fill:none;stroke:#000000;stroke-width:0.5" />
<path d="M196.22,450.39L196.22,493.49L206.22,493.49L206.22,450.39L195.72,450.39" style="fill:none;stroke:#000000" />
<path d="M196.22,471.94L206.22,471.94" style="fill:none;stroke:#000000" />
<path d="M201.22,493.49L201.22,536.58" style="fill:none;stroke:#000000;stroke-width:0.5;stroke-dasharray:4,2" />
<path d="M197.47,536.58L204.97,536.58" style="fill:none;stroke:#000000;stroke-width:0.5;stroke-dasharray:4,2" />
<path d="M201.22,450.39L201.22,407.29" style="fill:none;stroke:#000000;stroke-width:0.5;stroke-dasharray:4,2" />
<path d="M197.47,407.29L204.97,407.29" style="fill:none;stroke:#000000;stroke-width:0.5;stroke-dasharray:4,2" />
<path d="M203.72,364.2A2.5,2.5 0 1 1 198.72,364.2A2.5,2.5 0 1 1 203.72,364.2Z" style="fill:none;stroke:#000000;stroke-width:0.5" />
<path d="M203.72,364.2A2.5,2.5 0 1 1 198.72,364.2A2.5,2.5 0 1 1 203.72,364.2Z" style="fill:none;stroke:#000000;stroke-width:0.5" />
<path d="M203.72,364.2A2.5,2.5 0 1 1 198.72,364.2A2.5,2.5 0 1 1 203.72,364.2Z" style="fill:none;stroke:#000000;stroke-width:0.5" />
<path d="M203.72,321.1A2.5,2.5 0 1 1 198.72,321.1A2.5,2.5 0 1 1 203.72,321.1Z" style="fill:none;stroke:#000000;stroke-width:0.5" />
<path d="M203.72,299.55A2.5,2.5 0 1 1 198.72,299.55A2.5,2.5 0 1 1 203.72,299.55Z" style="fill:none;stroke:#000000;stroke-width:0.5" />
<path d="M203.72,299.55A2.5,2.5 0 1 1 198.72,299.55A2.5,2.5 0 1 1 203.72,299.55Z" style="fill:none;stroke:#000000;stroke-width:0.5" />
<path d="M203.72,278.01A2.5,2.5 0 1 1 198.72,278.01A2.5,2.5 0 1 1 203.72,278.01Z" style="fill:none;stroke:#000000;stroke-width:0.5" />
<path d="M203.72,234.91A2.5,2.5 0 1 1 198.72,234.91A2.5,2.5 0 1 1 203.72,234.91Z" style="fill:none;stroke:#000000;stroke-width:0.5" />
<path d="M220.65,450.39L220.65,493.49L230.65,493.49L230.65,450.39L220.15,450.39" style="fill:none;stroke:#000000" />
<path d="M220.65,471.94L230.65,471.94" style="fill:none;stroke:#000000" />
<path d="M225.65,493.49L225.65,536.58" style="fill:none;stroke:#000000;stroke-width:0.5;stroke-dasharray:4,2" />
<path d="M221.9,536.58L229.4,536.58" style="fill:none;stroke:#000000;stroke-width:0.5;stroke-dasharray:4,2" />
<path d="M225.65,450.39L225.65,385.75" style="fill:none;stroke:#000000;stroke-width:0.5;stroke-dasharray:4,2" />
<path d="M221.9,385.75L229.4,385.75" style="fill:none;stroke:#000000;stroke-width:0.5;stroke-dasharray:4,2" />
<path d="M228.15,342.65A2.5,2.5 0 1 1 223.15,342.65A2.5,2.5 0 1 1 228.15,342.65Z" style="fill:none;stroke:#000000;stroke-width:0.5" />
<path d="M228.15,342.65A2.5,2.5 0 1 1 223.15,342.65A2.5,2.5 0 1 1 228.15,342.65Z" style="fill:none;stroke:#000000;stroke-width:0.5" />
<path d="M228.15,342.65A2.5,2.5 0 1 1 223.15,342.65A2.5,2.5 0 1 1 228.15,342.65Z" style="fill:none;stroke:#000000;stroke-width:0.5" />
<path d="M228.15,256.46A2.5,2.5 0 1 1 223.15,256.46A2.5,2.5 0 1 1 228.15,256.46Z" style="fill:none;stroke:#000000;stroke-width:0.5" />
<path d="M245.07,450.39L245.07,493.49L255.07,493.49L255.07,450.39L244.57,450.39" style="fill:none;stroke:#000000" />
<path d="M245.07,471.94L255.07,471.94" style="fill:none;stroke:#000000" />
<path d="M250.07,493.49L250.07,558.13" style="fill:none;stroke:#000000;stroke-width:0.5;stroke-dasharray:4,2" />
<path d="M246.32,558.13L253.82,558.13" style="fill:none;stroke:#000000;stroke-width:0.5;stroke-dasharray:4,2" />
<path d="M250.07,450.39L250.07,385.75" style="fill:none;stroke:#000000;stroke-width:0.5;stroke-dasharray:4,2" />
<path d="M246.32,385.75L253.82,385.75" style="fill:none;stroke:#000000;stroke-width:0.5;stroke-dasharray:4,2" />
<path d="M252.57,364.2A2.5,2.5 0 1 1 247.57,364.2A2.5,2.5 0 1 1 252.57,364.2Z" style="fill:none;stroke:#000000;stroke-width:0.5" />
<path d="M252.57,364.2A2.5,2.5 0 1 1 247.57,364.2A2.5,2.5 0 1 1 252.57,364.2Z" style="fill:none;stroke:#000000;stroke-width:0.5" />
<path d="M252.57,364.2A2.5,2.5 0 1 1 247.57,364.2A2.5,2.5 0 1 1 252.57,364.2Z" style="fill:none;stroke:#000000;stroke-width:0.5" />
<path d="M252.57,364.2A2.5,2.5 0 1 1 247.57,364.2A2.5,2.5 0 1 1 252.57,364.2Z" style="fill:none;stroke:#000000;stroke-width:0.5" />
<path d="M252.57,342.65A2.5,2.5 0 1 1 247.57,342.65A2.5,2.5 0 1 1 252.57,342.65Z" style="fill:none;stroke:#000000;stroke-width:0.5" />
<path d="M252.57,321.1A2.5,2.5 0 1 1 247.57,321.1A2.5,2.5 0 1 1 252.57,321.1Z" style="fill:none;stroke:#000000;stroke-width:0.5" />
<path d="M252.57,299.55A2.5,2.5 0 1 1 247.57,299.55A2.5,2.5 0 1 1 252.57,299.55Z" style="fill:none;stroke:#000000;stroke-width:0.5" />
<path d="M252.57,299.55A2.5,2.5 0 1 1 247.57,299.55A2.5,2.5 0 1 1 252.57,299.55Z" style="fill:none;stroke:#000000;stroke-width:0.5" />
<path d="M252.57,278.01A2.5,2.5 0 1 1 247.57,278.01A2.5,2.5 0 1 1 252.57,278.01Z" style="fill:none;stroke:#000000;stroke-width:0.5" />
<path d="M252.57,278.01A2.5,2.5 0 1 1 247.57,278.01A2.5,2.5 0 1 1 252.57,278.01Z" style="fill:none;stroke:#000000;stroke-width:0.5" />
<path d="M252.57,213.36A2.5,2.5 0 1 1 247.57,213.36A2.5,2.5 0 1 1 252.57,213.36Z" style="fill:none;stroke:#000000;stroke-width:0.5" />
<path d="M269.5,450.39L269.5,515.03L279.5,515.03L279.5,450.39L269,450.39" style="fill:none;stroke:#000000" />
<path d="M269.5,493.49L279.5,493.49" style="fill:none;stroke:#000000" />
<path d="M274.5,515.03L274.5,579.68" style="fill:none;stroke:#000000;stroke-width:0.5;stroke-dasharray:4,2" />
<path d="M270.75,579.68L278.25,579.68" style="fill:none;stroke:#000000;stroke-width:0.5;stroke-dasharray:4,2" />
<path d="M274.5,450.39L274.5,364.2" style="fill:none;stroke:#000000;stroke-width:0.5;stroke-dasharray:4,2" />
<path d="M270.75,364.2L278.25,364.2" style="fill:none;stroke:#000000;stroke-width:0.5;stroke-dasharray:4,2" />
<path d="M277,342.65A2.5,2.5 0 1 1 272,342.65A2.5,2.5 0 1 1 277,342.65Z" style="fill:none;stroke:#000000;stroke-width:0.5" />
<path d="M277,342.65A2.5,2.5 0 1 1 272,342.65A2.5,2.5 0 1 1 277,342.65Z" style="fill:none;stroke:#000000;stroke-width:0.5" />
<path d="M277,321.1A2.5,2.5 0 1 1 272,321.1A2.5,2.5 0 1 1 277,321.1Z" style="fill:none;stroke:#000000;stroke-width:0.5" />
<path d="M277,321.1A2.5,2.5 0 1 1 272,321.1A2.5,2.5 0 1 1 277,321.1Z" style="fill:none;stroke:#000000;stroke-width:0.5" />
<path d="M277,299.55A2.5,2.5 0 1 1 272,299.55A2.5,2.5 0 1 1 277,299.55Z" style="fill:none;stroke:#000000;stroke-width:0.5" />
<path d="M277,234.91A2.5,2.5 0 1 1 272,234.91A2.5,2.5 0 1 1 277,234.91Z" style="fill:none;stroke:#000000;stroke-width:0.5" />
<path d="M54.666,259.48L79.092,298.69L103.52,290.5L127.94,399.97L152.37,444.79L176.8,461.81L201.22,465.69L225.65,468.27L250.07,462.24L274.5,470.43" style="fill:none;stroke:#F15A60" />
<path d="M57.166,259.48A2.5,2.5 0 1 1 52.166,259.48A2.5,2.5 0 1 1 57.166,259.48Z" style="fill:none;stroke:#F15A60;stroke-width:0.5" />
<path d="M81.592,298.69A2.5,2.5 0 1 1 76.592,298.69A2.5,2.5 0 1 1 81.592,298.69Z" style="fill:none;stroke:#F15A60;stroke-width:0.5" />
<path d="M106.02,290.5A2.5,2.5 0 1 1 101.02,290.5A2.5,2.5 0 1 1 106.02,290.5Z" style="fill:none;stroke:#F15A60;stroke-width:0.5" />
<path d="M130.44,399.97A2.5,2.5 0 1 1 125.44,399.97A2.5,2.5 0 1 1 130.44,399.97Z" style="fill:none;stroke:#F15A60;stroke-width:0.5" />
<path d="M154.87,444.79A2.5,2.5 0 1 1 149.87,444.79A2.5,2.5 0 1 1 154.87,444.79Z" style="fill:none;stroke:#F15A60;stroke-width:0.5" />
<path d="M179.3,461.81A2.5,2.5 0 1 1 174.3,461.81A2.5,2.5 0 1 1 179.3,461.81Z" style="fill:none;stroke:#F15A60;stroke-width:0.5" />
<path d="M203.72,465.69A2.5,2.5 0 1 1 198.72,465.69A2.5,2.5 0 1 1 203.72,465.69Z" style="fill:none;stroke:#F15A60;stroke-width:0.5" />
<path d="M228.15,468.27A2.5,2.5 0 1 1 223.15,468.27A2.5,2.5 0 1 1 228.15,468.27Z" style="fill:none;stroke:#F15A60;stroke-width:0.5" />
<path d="M252.57,462.24A2.5,2.5 0 1 1 247.57,462.24A2.5,2.5 0 1 1 252.57,462.24Z" style="fill:none;stroke:#F15A60;stroke-width:0.5" />
<path d="M277,470.43A2.5,2.5 0 1 1 272,470.43A2.5,2.5 0 1 1 277,470.43Z" style="fill:none;stroke:#F15A60;stroke-width:0.5" />
</g>
</svg>
